# xmcd CD database file
#
# Track frame offsets:
#	150
#	84050
#	175121
#	230389
#	288551
#
# Disc length: 4393 seconds
#
# Revision: 1
# Processed by: cddbd v1.5.2PL0 Copyright (c) Steve Scherf et al.
# Submitted via: CDex 1.70beta2
#
DISCID=33112705
DTITLE=Fumio Itabashi - 005 2nd Stage
DYEAR=1998
DGENRE=Jazz
TTITLE0=Last Summer
TTITLE1=Roy-cwratone
TTITLE2=21
TTITLE3=Rumba at A Red Sunset
TTITLE4=When I'm 64
EXTD=YEAR: 1998
EXTT0=
EXTT1=
EXTT2=
EXTT3=
EXTT4=
PLAYORDER=
